<?xml version="1.0" encoding="UTF-8"?>
<!-- Created with Inkscape (http://www.inkscape.org/) -->
<svg width="241.2mm" height="194.7mm" version="1.1" viewBox="0 0 241.2 194.7" xmlns="http://www.w3.org/2000/svg" fill="currentColor">
 <g transform="translate(14.231 -40.093)">
  <path d="m218.23 105.57c0 70-103.79 126.66-108.21 129a8 8 0 0 1-7.58 0c-4.42-2.34-108.21-59-108.21-129a62.07 62.07 0 0 1 62-62c20.65 0 38.73 8.88 50 23.89 11.27-15.01 29.35-23.89 50-23.89a62.07 62.07 0 0 1 62 62z"/>
 </g>
 <g transform="translate(14.231 -40.093)" display="none">
  <g transform="translate(1.5875)">
   <path d="m163.39 42.871c-20.65 0-38.73 8.88-50 23.89l9.7245 16.259-18.042 31.513 23.816 33.679-22.372 33.198 17.08 28.627-10.553 24.746a8 8 0 0 0 4.1382-0.91106c4.42-2.34 108.21-59 108.21-129a62.07 62.07 0 0 0-62-62z"/>
   <path d="m46.182 40.093a62.07 62.07 0 0 0-62 62c0 70 103.79 126.66 108.21 129a8 8 0 0 0 3.4422 0.91106l10.553-24.746-17.08-28.627 22.372-33.198-23.816-33.679 18.042-31.513-9.7245-16.259c-11.27-15.01-29.35-23.89-50-23.89z"/>
  </g>
 </g>
</svg>
